<svg version="1" xmlns="http://www.w3.org/2000/svg" width="682.667" height="682.667" viewBox="0 0 512.000000 512.000000"><path d="M234 1.6c-1.4.2-6.5.9-11.5 1.5C128 14.5 44.6 83.6 14.5 175.5 5.6 202.6 2 225.6 2 255.7c0 26.1 2.5 44.9 9.2 68.8 11.4 40.8 34.4 80.1 64.9 110.6 39.5 39.6 88 63.8 145.6 72.6 16.9 2.6 53.6 2.3 71.8-.5 27.3-4.3 50-11.4 75-23.7 65.5-32 114-90.9 133.5-162 11.3-41.4 11.5-87.2.5-130-4.6-17.9-9.1-30-18.5-49C446 65 371.5 12.6 285.3 2.5 273.9 1.2 241.1.6 234 1.6zm61 23.2c24.6 4.5 41.9 10.1 64.5 21.2 69 33.7 116.6 99.3 128.1 176.5 2.1 14.5 2.5 47.6.6 61-6.2 44.6-23.3 85.1-49.7 118-7.6 9.6-25.3 27.3-35 35.2-27.4 22.1-62.5 39.1-96.5 46.7-18.8 4.1-28.3 5.1-50.5 5.1-26.3 0-41-1.9-63.5-8.2-28.5-7.9-58.2-23-82.5-42.1-11-8.6-32.3-30.7-41.1-42.4-30.8-41.2-46.5-88.3-46.6-139.3-.1-28.1 3.3-49.9 11.8-75.5C61.7 99.2 134.3 37.8 219.5 24.6c15.3-2.4 15.5-2.4 40.5-2.1 18.4.2 26 .7 35 2.3z"/><path d="M117.9 93l-3 3 .3 20.6.3 20.6 2.8 2.4c2.6 2.2 3.6 2.4 14.3 2.4 6.4 0 12.4-.5 13.5-1 4.2-2.3 4.9-5.8 4.9-26V95.8l-2.9-2.9c-2.9-2.9-3-2.9-15.1-2.9-12.2 0-12.2 0-15.1 3zM120.5 180.4c-1.7.7-3.6 2.5-4.3 4-.9 2.1-1.2 28.8-1.2 116.7v114.1l2.9 2.9c2.9 2.9 3.1 2.9 14.5 2.9 12.4 0 15.8-.9 17.5-4.7.8-1.7 1.1-35.1 1.1-116.8V185.1l-2.4-2.8c-2.4-2.7-2.7-2.8-13.8-3.1-7.9-.1-12.2.2-14.3 1.2zM236.5 183.5c-32.4 7.1-54 33.7-59.9 73.7-1.3 8.8-1.6 22.6-1.6 84.6v74l3.1 2.6c3 2.5 3.4 2.6 17.4 2.6 9 0 15.4-.4 17-1.2 5.6-2.6 5.5-.6 5.5-78.5 0-77.5.1-79.4 5.4-90.9 3.1-6.7 11.1-15.3 17.1-18.3 7.3-3.6 16.4-4.3 51.5-3.9 37.4.5 38.5.7 47.6 9.1 6.3 5.7 10.6 13.4 13.1 23.4 1.5 6.1 1.7 14 1.4 77.8-.2 50.7 0 72.3.8 75.3 1.8 6.4 4.1 7.2 21.6 7.2h14.7l2.9-3 3-2.9-.4-78.3c-.3-76.9-.4-78.5-2.6-88.2-4.6-20.6-11.5-33.9-23.6-46.1-9.5-9.6-19.8-15.4-32.6-18.5-7.8-1.8-11.6-2-51.9-1.9-32.1 0-45.1.4-49.5 1.4z"/></svg>